<svg xmlns="http://www.w3.org/2000/svg" viewBox="0 0 100 100" fill="none">
  <path class="crayon-fill-paper" d="M20 24 Q16 24 16 28 L16 66 Q16 70 20 70 L66 70 Q70 70 70 66 L70 28 Q70 24 66 24 Z"/>
  <path class="crayon-draw crayon-stroke-ink" pathLength="1" d="M20 24 Q16 24 16 28 L16 66 Q16 70 20 70 L66 70 Q70 70 70 66 L70 28 Q70 24 66 24 Z" stroke-width="4.5" stroke-linecap="round" stroke-linejoin="round"/>
  <circle class="crayon-fill-sunshine" cx="32" cy="38" r="6"/>
  <path class="crayon-fill-leaf" d="M18 64 Q28 50 36 56 Q44 44 52 54 Q60 48 68 64 Z" opacity="0.95"/>
  <path class="crayon-draw crayon-stroke-ink" pathLength="1" d="M18 64 Q28 50 36 56 Q44 44 52 54 Q60 48 68 64" stroke-width="3.4" stroke-linecap="round" stroke-linejoin="round"/>
  <path class="crayon-fill-berry" d="M62 60 L82 60 Q86 60 86 64 L86 74 Q86 78 82 78 L62 78 L54 69 Z" opacity="0.95"/>
  <path class="crayon-draw crayon-stroke-ink" pathLength="1" d="M62 60 L82 60 Q86 60 86 64 L86 74 Q86 78 82 78 L62 78 L54 69 Z" stroke-width="3.4" stroke-linecap="round" stroke-linejoin="round"/>
  <circle class="crayon-fill-paper" cx="64" cy="69" r="2.6"/>
</svg>
