<svg xmlns="http://www.w3.org/2000/svg" viewBox="0 0 100 100" fill="none">
  <path class="crayon-fill-leaf" d="M18 72 Q50 58 82 72 Q84 84 50 88 Q16 84 18 72 Z" opacity="0.35"/>
  <path class="crayon-draw crayon-stroke-leaf" pathLength="1" d="M18 72 Q50 58 82 72 M22 76 Q50 64 78 76 M26 80 Q50 70 74 80" stroke-width="3.5" stroke-linecap="round"/>
  <ellipse class="crayon-fill-sunshine" cx="50" cy="64" rx="10" ry="12"/>
  <path class="crayon-fill-sunshine" d="M38 38 Q50 22 62 38 Q64 52 50 58 Q36 52 38 38 Z" opacity="0.85"/>
  <path class="crayon-draw crayon-stroke-ink" pathLength="1" d="M38 38 Q50 22 62 38 Q64 52 50 58 Q36 52 38 38 Z" stroke-width="4"/>
  <path class="crayon-fill-berry" d="M62 42 Q74 36 78 48 Q72 54 64 50 Z" opacity="0.7"/>
  <path class="crayon-draw crayon-stroke-berry" pathLength="1" d="M62 42 Q74 36 78 48" stroke-width="3" stroke-linecap="round"/>
</svg>
