<svg xmlns="http://www.w3.org/2000/svg" viewBox="0 0 100 100" fill="none">
  <path class="crayon-fill-leaf" d="M50 24 Q68 30 72 48 Q70 66 50 72 Q30 66 28 48 Q32 30 50 24 Z" opacity="0.35"/>
  <path class="crayon-fill-sunshine" d="M50 28 Q64 34 66 48 Q64 62 50 66 Q36 62 34 48 Q36 34 50 28 Z"/>
  <path class="crayon-draw crayon-stroke-ink" pathLength="1" d="M50 28 Q64 34 66 48 Q64 62 50 66 Q36 62 34 48 Q36 34 50 28 Z" stroke-width="4"/>
  <path class="crayon-fill-paper" d="M46 38 L54 38 L52 48 L48 48 Z"/>
  <circle class="crayon-fill-ink" cx="44" cy="44" r="2"/>
  <circle class="crayon-fill-ink" cx="56" cy="44" r="2"/>
  <path class="crayon-draw crayon-stroke-berry" pathLength="1" d="M50 66 L50 82 M38 74 L50 82 L62 74" stroke-width="4" stroke-linecap="round" stroke-linejoin="round"/>
  <path class="crayon-draw crayon-stroke-leaf" pathLength="1" d="M28 52 L18 46 M72 52 L82 46" stroke-width="3.5" stroke-linecap="round"/>
</svg>
