<svg xmlns="http://www.w3.org/2000/svg" viewBox="0 0 100 100" fill="none">
  <ellipse class="crayon-fill-paper" cx="34" cy="58" rx="18" ry="12" opacity="0.95"/>
  <ellipse class="crayon-draw crayon-stroke-ink" pathLength="1" cx="34" cy="58" rx="18" ry="12" stroke-width="3.5"/>
  <circle class="crayon-fill-paper" cx="48" cy="52" r="8"/>
  <path class="crayon-draw crayon-stroke-ink" pathLength="1" d="M44 46 L42 38 M52 46 L54 38 M26 66 L22 76 M34 68 L32 78" stroke-width="3" stroke-linecap="round"/>
  <ellipse class="crayon-fill-paper" cx="68" cy="56" rx="20" ry="13"/>
  <ellipse class="crayon-draw crayon-stroke-ink" pathLength="1" cx="68" cy="56" rx="20" ry="13" stroke-width="3.5"/>
  <circle class="crayon-fill-paper" cx="84" cy="48" r="9"/>
  <path class="crayon-draw crayon-stroke-ink" pathLength="1" d="M78 40 L76 32 M88 40 L90 32 M58 66 L54 76 M70 68 L68 78" stroke-width="3" stroke-linecap="round"/>
  <path class="crayon-fill-berry" d="M48 34 Q50 28 52 34 Q50 40 48 34 Z" opacity="0.85"/>
  <path class="crayon-draw crayon-stroke-berry" pathLength="1" d="M46 36 Q50 30 54 36" stroke-width="2.5" stroke-linecap="round"/>
</svg>
