<svg xmlns="http://www.w3.org/2000/svg" viewBox="0 0 100 100" fill="none">
  <ellipse class="crayon-fill-sky" cx="50" cy="70" rx="36" ry="10" opacity="0.3"/>
  <path class="crayon-fill-leaf" d="M28 62 Q50 48 72 62 Q74 72 50 76 Q26 72 28 62 Z" opacity="0.85"/>
  <path class="crayon-draw crayon-stroke-ink" pathLength="1" d="M28 62 Q50 48 72 62 Q74 72 50 76 Q26 72 28 62 Z" stroke-width="4" stroke-linejoin="round"/>
  <path class="crayon-draw crayon-stroke-ink" pathLength="1" d="M38 58 Q50 52 62 58" stroke-width="3" stroke-linecap="round"/>
  <circle class="crayon-fill-ink" cx="66" cy="56" r="2"/>
  <path class="crayon-draw crayon-stroke-ink" pathLength="1" d="M32 66 L26 74 M40 68 L36 78 M48 69 L48 80 M56 68 L60 78 M64 66 L70 74" stroke-width="3" stroke-linecap="round"/>
</svg>
