<svg xmlns="http://www.w3.org/2000/svg" viewBox="0 0 100 100" fill="none">
  <path class="crayon-fill-sunshine" d="M50 16 Q57 38 61 41 Q66 44 84 40 Q70 56 69 61 Q68 67 78 84 Q57 74 51 75 Q45 76 26 86 Q34 64 32 59 Q30 54 16 41 Q39 45 44 42 Q49 39 50 16 Z"/>
  <path class="crayon-draw crayon-stroke-ink" pathLength="1" d="M50 16 Q57 38 61 41 Q66 44 84 40 Q70 56 69 61 Q68 67 78 84 Q57 74 51 75 Q45 76 26 86 Q34 64 32 59 Q30 54 16 41 Q39 45 44 42 Q49 39 50 16 Z" stroke-width="5" stroke-linecap="round" stroke-linejoin="round"/>
</svg>
